solid 
   facet normal -9.829731e-01 -1.837495e-01 0.000000e+00
      outer loop
         vertex -6.000000e+00 7.347881e-16 2.000000e+02
         vertex -6.000000e+00 7.347881e-16 0.000000e+00
         vertex -5.594833e+00 -2.167450e+00 0.000000e+00
      endloop
   endfacet
   facet normal -6.026347e-01 -7.980172e-01 0.000000e+00
      outer loop
         vertex -4.434053e+00 -4.042174e+00 0.000000e+00
         vertex -2.674430e+00 -5.370980e+00 0.000000e+00
         vertex -2.674430e+00 -5.370980e+00 2.000000e+02
      endloop
   endfacet
   facet normal 9.226856e-02 -9.957342e-01 0.000000e+00
      outer loop
         vertex -5.536101e-01 -5.974405e+00 0.000000e+00
         vertex 1.641978e+00 -5.770954e+00 0.000000e+00
         vertex 1.641978e+00 -5.770954e+00 2.000000e+02
      endloop
   endfacet
   facet normal 7.390090e-01 -6.736956e-01 0.000000e+00
      outer loop
         vertex 3.615808e+00 -4.788104e+00 0.000000e+00
         vertex 5.101303e+00 -3.158593e+00 0.000000e+00
         vertex 5.101303e+00 -3.158593e+00 2.000000e+02
      endloop
   endfacet
   facet normal 1.000000e+00 0.000000e+00 -0.000000e+00
      outer loop
         vertex 5.897839e+00 -1.102497e+00 0.000000e+00
         vertex 5.897839e+00 1.102497e+00 0.000000e+00
         vertex 5.897839e+00 1.102497e+00 2.000000e+02
      endloop
   endfacet
   facet normal 7.390090e-01 6.736956e-01 -0.000000e+00
      outer loop
         vertex 5.101303e+00 3.158593e+00 0.000000e+00
         vertex 3.615808e+00 4.788104e+00 0.000000e+00
         vertex 3.615808e+00 4.788104e+00 2.000000e+02
      endloop
   endfacet
   facet normal 9.226856e-02 9.957342e-01 -0.000000e+00
      outer loop
         vertex 1.641978e+00 5.770954e+00 0.000000e+00
         vertex -5.536101e-01 5.974405e+00 0.000000e+00
         vertex -5.536101e-01 5.974405e+00 2.000000e+02
      endloop
   endfacet
   facet normal -6.026347e-01 7.980172e-01 0.000000e+00
      outer loop
         vertex -2.674430e+00 5.370980e+00 0.000000e+00
         vertex -4.434053e+00 4.042174e+00 0.000000e+00
         vertex -4.434053e+00 4.042174e+00 2.000000e+02
      endloop
   endfacet
   facet normal -9.829731e-01 1.837495e-01 0.000000e+00
      outer loop
         vertex -5.594833e+00 2.167450e+00 0.000000e+00
         vertex -6.000000e+00 7.347881e-16 0.000000e+00
         vertex -6.000000e+00 7.347881e-16 2.000000e+02
      endloop
   endfacet
   facet normal -8.502171e-01 5.264322e-01 0.000000e+00
      outer loop
         vertex -5.594833e+00 2.167450e+00 2.000000e+02
         vertex -4.434053e+00 4.042174e+00 2.000000e+02
         vertex -4.434053e+00 4.042174e+00 0.000000e+00
      endloop
   endfacet
   facet normal -2.736631e-01 9.618256e-01 0.000000e+00
      outer loop
         vertex -2.674430e+00 5.370980e+00 2.000000e+02
         vertex -5.536101e-01 5.974405e+00 2.000000e+02
         vertex -5.536101e-01 5.974405e+00 0.000000e+00
      endloop
   endfacet
   facet normal 4.457382e-01 8.951634e-01 0.000000e+00
      outer loop
         vertex 1.641978e+00 5.770954e+00 2.000000e+02
         vertex 3.615808e+00 4.788104e+00 2.000000e+02
         vertex 3.615808e+00 4.788104e+00 0.000000e+00
      endloop
   endfacet
   facet normal 9.324722e-01 3.612417e-01 0.000000e+00
      outer loop
         vertex 5.101303e+00 3.158593e+00 2.000000e+02
         vertex 5.897839e+00 1.102497e+00 2.000000e+02
         vertex 5.897839e+00 1.102497e+00 0.000000e+00
      endloop
   endfacet
   facet normal 9.324722e-01 -3.612417e-01 0.000000e+00
      outer loop
         vertex 5.897839e+00 -1.102497e+00 2.000000e+02
         vertex 5.101303e+00 -3.158593e+00 2.000000e+02
         vertex 5.101303e+00 -3.158593e+00 0.000000e+00
      endloop
   endfacet
   facet normal 4.457382e-01 -8.951634e-01 0.000000e+00
      outer loop
         vertex 3.615808e+00 -4.788104e+00 2.000000e+02
         vertex 1.641978e+00 -5.770954e+00 2.000000e+02
         vertex 1.641978e+00 -5.770954e+00 0.000000e+00
      endloop
   endfacet
   facet normal -2.736631e-01 -9.618256e-01 -0.000000e+00
      outer loop
         vertex -5.536101e-01 -5.974405e+00 2.000000e+02
         vertex -2.674430e+00 -5.370980e+00 2.000000e+02
         vertex -2.674430e+00 -5.370980e+00 0.000000e+00
      endloop
   endfacet
   facet normal -8.502171e-01 -5.264322e-01 -0.000000e+00
      outer loop
         vertex -4.434053e+00 -4.042174e+00 2.000000e+02
         vertex -5.594833e+00 -2.167450e+00 2.000000e+02
         vertex -5.594833e+00 -2.167450e+00 0.000000e+00
      endloop
   endfacet
   facet normal -9.829731e-01 -1.837495e-01 0.000000e+00
      outer loop
         vertex -6.000000e+00 7.347881e-16 2.000000e+02
         vertex -5.594833e+00 -2.167450e+00 0.000000e+00
         vertex -5.594833e+00 -2.167450e+00 2.000000e+02
      endloop
   endfacet
   facet normal 7.390090e-01 -6.736956e-01 0.000000e+00
      outer loop
         vertex 3.615808e+00 -4.788104e+00 0.000000e+00
         vertex 5.101303e+00 -3.158593e+00 2.000000e+02
         vertex 3.615808e+00 -4.788104e+00 2.000000e+02
      endloop
   endfacet
   facet normal 9.226856e-02 9.957342e-01 0.000000e+00
      outer loop
         vertex 1.641978e+00 5.770954e+00 0.000000e+00
         vertex -5.536101e-01 5.974405e+00 2.000000e+02
         vertex 1.641978e+00 5.770954e+00 2.000000e+02
      endloop
   endfacet
   facet normal -8.502171e-01 5.264322e-01 0.000000e+00
      outer loop
         vertex -5.594833e+00 2.167450e+00 2.000000e+02
         vertex -4.434053e+00 4.042174e+00 0.000000e+00
         vertex -5.594833e+00 2.167450e+00 0.000000e+00
      endloop
   endfacet
   facet normal 9.324722e-01 3.612417e-01 0.000000e+00
      outer loop
         vertex 5.101303e+00 3.158593e+00 2.000000e+02
         vertex 5.897839e+00 1.102497e+00 0.000000e+00
         vertex 5.101303e+00 3.158593e+00 0.000000e+00
      endloop
   endfacet
   facet normal -2.736631e-01 -9.618256e-01 0.000000e+00
      outer loop
         vertex -5.536101e-01 -5.974405e+00 2.000000e+02
         vertex -2.674430e+00 -5.370980e+00 0.000000e+00
         vertex -5.536101e-01 -5.974405e+00 0.000000e+00
      endloop
   endfacet
   facet normal 4.457382e-01 8.951634e-01 0.000000e+00
      outer loop
         vertex 1.641978e+00 5.770954e+00 0.000000e+00
         vertex 1.641978e+00 5.770954e+00 2.000000e+02
         vertex 3.615808e+00 4.788104e+00 0.000000e+00
      endloop
   endfacet
   facet normal -8.502171e-01 -5.264322e-01 0.000000e+00
      outer loop
         vertex -5.594833e+00 -2.167450e+00 0.000000e+00
         vertex -4.434053e+00 -4.042174e+00 0.000000e+00
         vertex -4.434053e+00 -4.042174e+00 2.000000e+02
      endloop
   endfacet
   facet normal 9.324722e-01 -3.612417e-01 0.000000e+00
      outer loop
         vertex 5.101303e+00 -3.158593e+00 0.000000e+00
         vertex 5.897839e+00 -1.102497e+00 0.000000e+00
         vertex 5.897839e+00 -1.102497e+00 2.000000e+02
      endloop
   endfacet
   facet normal -9.829731e-01 1.837495e-01 0.000000e+00
      outer loop
         vertex -6.000000e+00 7.347881e-16 2.000000e+02
         vertex -5.594833e+00 2.167450e+00 2.000000e+02
         vertex -5.594833e+00 2.167450e+00 0.000000e+00
      endloop
   endfacet
   facet normal 7.390090e-01 6.736956e-01 0.000000e+00
      outer loop
         vertex 3.615808e+00 4.788104e+00 2.000000e+02
         vertex 5.101303e+00 3.158593e+00 2.000000e+02
         vertex 5.101303e+00 3.158593e+00 0.000000e+00
      endloop
   endfacet
   facet normal 9.226856e-02 -9.957342e-01 0.000000e+00
      outer loop
         vertex 1.641978e+00 -5.770954e+00 2.000000e+02
         vertex -5.536101e-01 -5.974405e+00 2.000000e+02
         vertex -5.536101e-01 -5.974405e+00 0.000000e+00
      endloop
   endfacet
   facet normal -6.026347e-01 -7.980172e-01 0.000000e+00
      outer loop
         vertex -4.434053e+00 -4.042174e+00 0.000000e+00
         vertex -2.674430e+00 -5.370980e+00 2.000000e+02
         vertex -4.434053e+00 -4.042174e+00 2.000000e+02
      endloop
   endfacet
   facet normal -2.736631e-01 9.618256e-01 0.000000e+00
      outer loop
         vertex -2.674430e+00 5.370980e+00 2.000000e+02
         vertex -5.536101e-01 5.974405e+00 0.000000e+00
         vertex -2.674430e+00 5.370980e+00 0.000000e+00
      endloop
   endfacet
   facet normal 1.000000e+00 0.000000e+00 0.000000e+00
      outer loop
         vertex 5.897839e+00 -1.102497e+00 2.000000e+02
         vertex 5.897839e+00 -1.102497e+00 0.000000e+00
         vertex 5.897839e+00 1.102497e+00 2.000000e+02
      endloop
   endfacet
   facet normal 4.457382e-01 -8.951634e-01 0.000000e+00
      outer loop
         vertex 1.641978e+00 -5.770954e+00 0.000000e+00
         vertex 3.615808e+00 -4.788104e+00 0.000000e+00
         vertex 3.615808e+00 -4.788104e+00 2.000000e+02
      endloop
   endfacet
   facet normal -6.026347e-01 7.980172e-01 0.000000e+00
      outer loop
         vertex -2.674430e+00 5.370980e+00 0.000000e+00
         vertex -4.434053e+00 4.042174e+00 2.000000e+02
         vertex -2.674430e+00 5.370980e+00 2.000000e+02
      endloop
   endfacet
   facet normal -0.000000e+00 0.000000e+00 1.000000e+00
      outer loop
         vertex -5.594833e+00 2.167450e+00 2.000000e+02
         vertex -6.000000e+00 7.347881e-16 2.000000e+02
         vertex -4.434053e+00 -4.042174e+00 2.000000e+02
      endloop
   endfacet
   facet normal 0.000000e+00 0.000000e+00 1.000000e+00
      outer loop
         vertex -5.594833e+00 -2.167450e+00 2.000000e+02
         vertex -4.434053e+00 -4.042174e+00 2.000000e+02
         vertex -6.000000e+00 7.347881e-16 2.000000e+02
      endloop
   endfacet
   facet normal 0.000000e+00 0.000000e+00 1.000000e+00
      outer loop
         vertex -5.536101e-01 -5.974405e+00 2.000000e+02
         vertex 1.641978e+00 -5.770954e+00 2.000000e+02
         vertex -2.674430e+00 -5.370980e+00 2.000000e+02
      endloop
   endfacet
   facet normal 0.000000e+00 -0.000000e+00 1.000000e+00
      outer loop
         vertex 5.101303e+00 -3.158593e+00 2.000000e+02
         vertex 5.897839e+00 -1.102497e+00 2.000000e+02
         vertex 5.897839e+00 1.102497e+00 2.000000e+02
      endloop
   endfacet
   facet normal 0.000000e+00 0.000000e+00 1.000000e+00
      outer loop
         vertex 5.101303e+00 3.158593e+00 2.000000e+02
         vertex 3.615808e+00 4.788104e+00 2.000000e+02
         vertex 1.641978e+00 5.770954e+00 2.000000e+02
      endloop
   endfacet
   facet normal -0.000000e+00 0.000000e+00 1.000000e+00
      outer loop
         vertex -5.536101e-01 5.974405e+00 2.000000e+02
         vertex -2.674430e+00 5.370980e+00 2.000000e+02
         vertex -4.434053e+00 4.042174e+00 2.000000e+02
      endloop
   endfacet
   facet normal 0.000000e+00 -0.000000e+00 1.000000e+00
      outer loop
         vertex -5.594833e+00 2.167450e+00 2.000000e+02
         vertex -4.434053e+00 -4.042174e+00 2.000000e+02
         vertex -4.434053e+00 4.042174e+00 2.000000e+02
      endloop
   endfacet
   facet normal 0.000000e+00 0.000000e+00 1.000000e+00
      outer loop
         vertex 5.101303e+00 3.158593e+00 2.000000e+02
         vertex 1.641978e+00 5.770954e+00 2.000000e+02
         vertex 5.897839e+00 1.102497e+00 2.000000e+02
      endloop
   endfacet
   facet normal 0.000000e+00 0.000000e+00 1.000000e+00
      outer loop
         vertex 5.897839e+00 1.102497e+00 2.000000e+02
         vertex 1.641978e+00 5.770954e+00 2.000000e+02
         vertex 3.615808e+00 -4.788104e+00 2.000000e+02
      endloop
   endfacet
   facet normal 0.000000e+00 0.000000e+00 1.000000e+00
      outer loop
         vertex 3.615808e+00 -4.788104e+00 2.000000e+02
         vertex 1.641978e+00 5.770954e+00 2.000000e+02
         vertex -4.434053e+00 -4.042174e+00 2.000000e+02
      endloop
   endfacet
   facet normal 0.000000e+00 0.000000e+00 1.000000e+00
      outer loop
         vertex -4.434053e+00 -4.042174e+00 2.000000e+02
         vertex 1.641978e+00 5.770954e+00 2.000000e+02
         vertex -4.434053e+00 4.042174e+00 2.000000e+02
      endloop
   endfacet
   facet normal -0.000000e+00 -0.000000e+00 1.000000e+00
      outer loop
         vertex -4.434053e+00 -4.042174e+00 2.000000e+02
         vertex -2.674430e+00 -5.370980e+00 2.000000e+02
         vertex 1.641978e+00 -5.770954e+00 2.000000e+02
      endloop
   endfacet
   facet normal 0.000000e+00 -0.000000e+00 1.000000e+00
      outer loop
         vertex 3.615808e+00 -4.788104e+00 2.000000e+02
         vertex 5.101303e+00 -3.158593e+00 2.000000e+02
         vertex 5.897839e+00 1.102497e+00 2.000000e+02
      endloop
   endfacet
   facet normal 0.000000e+00 0.000000e+00 1.000000e+00
      outer loop
         vertex -5.536101e-01 5.974405e+00 2.000000e+02
         vertex -4.434053e+00 4.042174e+00 2.000000e+02
         vertex 1.641978e+00 5.770954e+00 2.000000e+02
      endloop
   endfacet
   facet normal 0.000000e+00 0.000000e+00 1.000000e+00
      outer loop
         vertex 1.641978e+00 -5.770954e+00 2.000000e+02
         vertex 3.615808e+00 -4.788104e+00 2.000000e+02
         vertex -4.434053e+00 -4.042174e+00 2.000000e+02
      endloop
   endfacet
   facet normal 0.000000e+00 0.000000e+00 -1.000000e+00
      outer loop
         vertex -4.434053e+00 -4.042174e+00 0.000000e+00
         vertex -5.594833e+00 -2.167450e+00 0.000000e+00
         vertex -6.000000e+00 7.347881e-16 0.000000e+00
      endloop
   endfacet
   facet normal 0.000000e+00 0.000000e+00 -1.000000e+00
      outer loop
         vertex 1.641978e+00 -5.770954e+00 0.000000e+00
         vertex -5.536101e-01 -5.974405e+00 0.000000e+00
         vertex -2.674430e+00 -5.370980e+00 0.000000e+00
      endloop
   endfacet
   facet normal 0.000000e+00 0.000000e+00 -1.000000e+00
      outer loop
         vertex 1.641978e+00 -5.770954e+00 0.000000e+00
         vertex 5.101303e+00 -3.158593e+00 0.000000e+00
         vertex 3.615808e+00 -4.788104e+00 0.000000e+00
      endloop
   endfacet
   facet normal 0.000000e+00 -0.000000e+00 -1.000000e+00
      outer loop
         vertex 1.641978e+00 -5.770954e+00 0.000000e+00
         vertex 5.101303e+00 3.158593e+00 0.000000e+00
         vertex 5.897839e+00 1.102497e+00 0.000000e+00
      endloop
   endfacet
   facet normal 0.000000e+00 0.000000e+00 -1.000000e+00
      outer loop
         vertex 5.101303e+00 3.158593e+00 0.000000e+00
         vertex 1.641978e+00 5.770954e+00 0.000000e+00
         vertex 3.615808e+00 4.788104e+00 0.000000e+00
      endloop
   endfacet
   facet normal 0.000000e+00 0.000000e+00 -1.000000e+00
      outer loop
         vertex -5.536101e-01 5.974405e+00 0.000000e+00
         vertex -4.434053e+00 4.042174e+00 0.000000e+00
         vertex -2.674430e+00 5.370980e+00 0.000000e+00
      endloop
   endfacet
   facet normal 0.000000e+00 0.000000e+00 -1.000000e+00
      outer loop
         vertex 1.641978e+00 -5.770954e+00 0.000000e+00
         vertex -4.434053e+00 -4.042174e+00 0.000000e+00
         vertex -6.000000e+00 7.347881e-16 0.000000e+00
      endloop
   endfacet
   facet normal 0.000000e+00 0.000000e+00 -1.000000e+00
      outer loop
         vertex 5.101303e+00 -3.158593e+00 0.000000e+00
         vertex 1.641978e+00 -5.770954e+00 0.000000e+00
         vertex 5.897839e+00 1.102497e+00 0.000000e+00
      endloop
   endfacet
   facet normal 0.000000e+00 0.000000e+00 -1.000000e+00
      outer loop
         vertex 1.641978e+00 5.770954e+00 0.000000e+00
         vertex -4.434053e+00 4.042174e+00 0.000000e+00
         vertex -5.536101e-01 5.974405e+00 0.000000e+00
      endloop
   endfacet
   facet normal 0.000000e+00 0.000000e+00 -1.000000e+00
      outer loop
         vertex 5.897839e+00 -1.102497e+00 0.000000e+00
         vertex 5.101303e+00 -3.158593e+00 0.000000e+00
         vertex 5.897839e+00 1.102497e+00 0.000000e+00
      endloop
   endfacet
   facet normal 0.000000e+00 0.000000e+00 -1.000000e+00
      outer loop
         vertex 1.641978e+00 -5.770954e+00 0.000000e+00
         vertex -2.674430e+00 -5.370980e+00 0.000000e+00
         vertex -4.434053e+00 -4.042174e+00 0.000000e+00
      endloop
   endfacet
   facet normal 0.000000e+00 0.000000e+00 -1.000000e+00
      outer loop
         vertex 1.641978e+00 -5.770954e+00 0.000000e+00
         vertex -6.000000e+00 7.347881e-16 0.000000e+00
         vertex -5.594833e+00 2.167450e+00 0.000000e+00
      endloop
   endfacet
   facet normal 0.000000e+00 -0.000000e+00 -1.000000e+00
      outer loop
         vertex -4.434053e+00 4.042174e+00 0.000000e+00
         vertex 1.641978e+00 5.770954e+00 0.000000e+00
         vertex 5.101303e+00 3.158593e+00 0.000000e+00
      endloop
   endfacet
   facet normal 0.000000e+00 0.000000e+00 -1.000000e+00
      outer loop
         vertex 1.641978e+00 -5.770954e+00 0.000000e+00
         vertex -4.434053e+00 4.042174e+00 0.000000e+00
         vertex 5.101303e+00 3.158593e+00 0.000000e+00
      endloop
   endfacet
   facet normal 0.000000e+00 0.000000e+00 -1.000000e+00
      outer loop
         vertex 1.641978e+00 -5.770954e+00 0.000000e+00
         vertex -5.594833e+00 2.167450e+00 0.000000e+00
         vertex -4.434053e+00 4.042174e+00 0.000000e+00
      endloop
   endfacet
endsolid
